<svg width="126" height="137" viewBox="0 0 126 137" fill="none" xmlns="http://www.w3.org/2000/svg">
<path d="M69.7686 40.2705C69.777 55.4921 56.9708 68.3791 56.9708 68.3791C56.9708 68.3791 44.1508 56.587 44.1423 41.3654C44.1338 26.1438 56.9401 13.2567 56.9401 13.2567C56.9401 13.2567 69.7601 25.0488 69.7686 40.2705Z" fill="#2F3E5B"/>
<path d="M85.189 55.6307C69.9083 55.6223 56.9714 68.3791 56.9714 68.3791C56.9714 68.3791 68.8092 81.1496 84.0898 81.1581C99.3704 81.1665 112.307 68.4097 112.307 68.4097C112.307 68.4097 100.47 55.6392 85.189 55.6307Z" fill="#2F3E5B"/>
<path d="M28.7642 81.1168C44.0448 81.1253 56.9818 68.3684 56.9818 68.3684C56.9818 68.3684 45.1439 55.5979 29.8633 55.5895C14.5827 55.5811 1.64573 68.3379 1.64573 68.3379C1.64573 68.3379 13.4835 81.1084 28.7642 81.1168Z" fill="#2F3E5B"/>
<path d="M44.1846 96.4771C44.1761 81.2555 56.9824 68.3684 56.9824 68.3684C56.9824 68.3684 69.8024 80.1605 69.8108 95.3822C69.8193 110.604 57.013 123.491 57.013 123.491C57.013 123.491 44.193 111.699 44.1846 96.4771Z" fill="#2F3E5B"/>
</svg>
