<svg width="1920" height="1108" viewBox="0 0 1920 1108" fill="none" xmlns="http://www.w3.org/2000/svg">
<path d="M147.694 1034.05C106.91 1034.05 73.8477 1067.11 73.8477 1107.89H147.694V1034.05Z" fill="#D6C7B2"/>
<path d="M1920 1034.05C1879.22 1034.05 1846.15 1067.11 1846.15 1107.89H1920V1034.05Z" fill="#D6C7B2"/>
<path d="M1329.23 1034.05C1288.45 1034.05 1255.38 1067.11 1255.38 1107.89H1329.23V1034.05Z" fill="#D6C7B2"/>
<path d="M147.694 738.659C106.91 738.659 73.8477 771.721 73.8477 812.506H147.694V738.659Z" fill="#D6C7B2"/>
<path d="M147.694 295.581C106.91 295.581 73.8477 328.643 73.8477 369.428H147.694V295.581Z" fill="#D6C7B2"/>
<path d="M590.768 1034.05C549.984 1034.05 516.922 1067.11 516.922 1107.89H590.768V1034.05Z" fill="#D6C7B2"/>
<path d="M1476.92 1034.05C1436.14 1034.05 1403.08 1067.11 1403.08 1107.89H1476.92V1034.05Z" fill="#D6C7B2"/>
<path d="M738.464 1034.05C697.679 1034.05 664.617 1067.11 664.617 1107.89H738.464V1034.05Z" fill="#D6C7B2"/>
<path d="M590.768 886.353C549.984 886.353 516.922 919.415 516.922 960.199H590.768V886.353Z" fill="#E5F0F5"/>
<path d="M0.00112915 1034.05C40.7854 1034.05 73.8477 1000.98 73.8476 960.199L0.00112269 960.199L0.00112915 1034.05Z" fill="#E5F0F5"/>
<path d="M1772.31 1034.05C1813.09 1034.05 1846.15 1000.98 1846.15 960.199L1772.31 960.199L1772.31 1034.05Z" fill="#E5F0F5"/>
<path d="M0.00112915 886.353C40.7854 886.353 73.8477 853.29 73.8476 812.506L0.00112269 812.506L0.00112915 886.353Z" fill="#D6C7B2"/>
<path d="M0.00112915 738.659C40.7854 738.659 73.8477 705.597 73.8476 664.813L0.00112269 664.813L0.00112915 738.659Z" fill="#E5F0F5"/>
<path d="M0.00112915 295.581C40.7854 295.581 73.8477 262.519 73.8476 221.735L0.00112269 221.735L0.00112915 295.581Z" fill="#E5F0F5"/>
<path d="M147.694 590.968C106.91 590.968 73.8477 624.03 73.8477 664.814H147.694V590.968Z" fill="#E5F0F5"/>
<path d="M0.45636 1034.5C40.6281 1034.75 73.147 1067.27 73.391 1107.44L0.456357 1107.44L0.45636 1034.5Z" stroke="#D6C7B2" stroke-width="0.910458"/>
<path d="M1772.76 1034.5C1812.93 1034.75 1845.45 1067.27 1845.7 1107.44L1772.76 1107.44L1772.76 1034.5Z" stroke="#D6C7B2" stroke-width="0.910458"/>
<path d="M1181.99 1034.5C1222.16 1034.75 1254.68 1067.27 1254.93 1107.44L1181.99 1107.44L1181.99 1034.5Z" stroke="#D6C7B2" stroke-width="0.910458"/>
<path d="M0.45636 886.809C40.6281 887.053 73.147 919.572 73.391 959.744L0.456357 959.744L0.45636 886.809Z" stroke="#E5F0F5" stroke-width="0.910458"/>
<path d="M1772.76 886.809C1812.93 887.053 1845.45 919.572 1845.7 959.744L1772.76 959.744L1772.76 886.809Z" stroke="#E5F0F5" stroke-width="0.910458"/>
<path d="M147.694 443.273C106.91 443.273 73.8477 476.336 73.8477 517.12H147.694V443.273Z" fill="#D6C7B2"/>
<path d="M0.45636 739.116C40.6281 739.36 73.147 771.879 73.391 812.05L0.456357 812.05L0.45636 739.116Z" stroke="#D6C7B2" stroke-width="0.910458"/>
<path d="M443.075 1034.05C483.86 1034.05 516.922 1000.98 516.922 960.199L443.075 960.199L443.075 1034.05Z" fill="#E5F0F5"/>
<path d="M1329.23 1034.05C1370.01 1034.05 1403.08 1000.98 1403.08 960.199L1329.23 960.199L1329.23 1034.05Z" fill="#E5F0F5"/>
<path d="M590.771 1034.05C631.555 1034.05 664.617 1000.98 664.617 960.199L590.771 960.199L590.771 1034.05Z" fill="#E5F0F5"/>
<path d="M147.239 885.896C107.067 885.652 74.5483 853.133 74.3043 812.961L147.239 812.961L147.239 885.896Z" stroke="#D6C7B2" stroke-width="0.910458"/>
<path d="M147.239 738.203C107.067 737.959 74.5483 705.44 74.3043 665.268L147.239 665.268L147.239 738.203Z" stroke="#E5F0F5" stroke-width="0.910458"/>
<path d="M147.239 295.124C107.067 294.88 74.5483 262.362 74.3043 222.19L147.239 222.19L147.239 295.124Z" stroke="#E5F0F5" stroke-width="0.910458"/>
<path d="M0.00112915 590.968C40.7854 590.968 73.8477 557.906 73.8476 517.121L0.00112269 517.121L0.00112915 590.968Z" fill="#D6C7B2"/>
<path d="M443.531 1034.5C483.702 1034.75 516.221 1067.27 516.465 1107.44L443.531 1107.44L443.531 1034.5Z" stroke="#D6C7B2" stroke-width="0.910458"/>
<path d="M0.00112915 147.889C40.7854 147.889 73.8477 114.826 73.8476 74.0421L0.00112269 74.0422L0.00112915 147.889Z" fill="#D6C7B2"/>
<path d="M1329.68 1034.5C1369.86 1034.75 1402.38 1067.27 1402.62 1107.44L1329.68 1107.44L1329.68 1034.5Z" stroke="#D6C7B2" stroke-width="0.910458"/>
<path d="M591.226 1034.5C631.398 1034.75 663.917 1067.27 664.161 1107.44L591.226 1107.44L591.226 1034.5Z" stroke="#D6C7B2" stroke-width="0.910458"/>
<path d="M443.531 886.809C483.702 887.053 516.221 919.572 516.465 959.744L443.531 959.744L443.531 886.809Z" stroke="#E5F0F5" stroke-width="0.910458"/>
<path d="M0.45636 443.73C40.6281 443.974 73.147 476.493 73.391 516.665L0.456357 516.665L0.45636 443.73Z" stroke="#D6C7B2" stroke-width="0.910458"/>
<path d="M591.226 886.809C631.398 887.053 663.917 919.572 664.161 959.744L591.226 959.744L591.226 886.809Z" stroke="#E5F0F5" stroke-width="0.910458"/>
<path d="M590.313 1033.59C550.141 1033.35 517.622 1000.83 517.378 960.655L590.313 960.655L590.313 1033.59Z" stroke="#E5F0F5" stroke-width="0.910458"/>
<path d="M0.45636 591.424C40.6281 591.668 73.147 624.187 73.391 664.359L0.456357 664.359L0.45636 591.424Z" stroke="#E5F0F5" stroke-width="0.910458"/>
<path d="M0.45636 148.345C40.6281 148.589 73.147 181.108 73.391 221.28L0.456357 221.28L0.45636 148.345Z" stroke="#E5F0F5" stroke-width="0.910458"/>
<path d="M0.45636 0.653874C40.6281 0.89788 73.147 33.4168 73.391 73.5886L0.456357 73.5886L0.45636 0.653874Z" stroke="#E5F0F5" stroke-width="0.910458"/>
<path d="M1476.47 1033.59C1436.3 1033.35 1403.78 1000.83 1403.53 960.655L1476.47 960.655L1476.47 1033.59Z" stroke="#E5F0F5" stroke-width="0.910458"/>
<path d="M1328.77 1033.59C1288.6 1033.35 1256.08 1000.83 1255.84 960.655L1328.77 960.655L1328.77 1033.59Z" stroke="#E5F0F5" stroke-width="0.910458"/>
<path d="M738.008 1033.59C697.837 1033.35 665.318 1000.83 665.074 960.655L738.008 960.655L738.008 1033.59Z" stroke="#E5F0F5" stroke-width="0.910458"/>
<path d="M147.239 442.817C107.067 442.573 74.5483 410.054 74.3043 369.882L147.239 369.882L147.239 442.817Z" stroke="#E5F0F5" stroke-width="0.910458"/>
<path d="M147.239 590.511C107.067 590.267 74.5483 557.748 74.3043 517.576L147.239 517.576L147.239 590.511Z" stroke="#D6C7B2" stroke-width="0.910458"/>
<path d="M147.693 590.967C188.477 590.967 221.539 557.904 221.539 517.12C221.539 557.904 254.601 590.967 295.385 590.967C254.601 590.967 221.539 624.029 221.539 664.813C221.539 624.029 188.477 590.967 147.693 590.967Z" fill="#E5F0F5"/>
<path d="M147.693 738.767C188.477 738.767 221.539 705.705 221.539 664.921C221.539 705.705 254.601 738.767 295.385 738.767C254.601 738.767 221.539 771.83 221.539 812.614C221.539 771.83 188.477 738.767 147.693 738.767Z" fill="#E5F0F5"/>
<path d="M738.465 1034.15C779.249 1034.15 812.311 1001.09 812.311 960.308C812.311 1001.09 845.372 1034.15 886.156 1034.15C845.372 1034.15 812.311 1067.22 812.311 1108C812.311 1067.22 779.249 1034.15 738.465 1034.15Z" fill="#D6C7B2"/>
<path d="M1033.84 1034.15C1074.63 1034.15 1107.69 1001.09 1107.69 960.308C1107.69 1001.09 1140.75 1034.15 1181.54 1034.15C1140.75 1034.15 1107.69 1067.22 1107.69 1108C1107.69 1067.22 1074.63 1034.15 1033.84 1034.15Z" fill="#E5F0F5"/>
<path d="M1033.84 886.461C1074.63 886.461 1107.69 853.399 1107.69 812.614C1107.69 853.399 1140.75 886.461 1181.54 886.461C1140.75 886.461 1107.69 919.523 1107.69 960.307C1107.69 919.523 1074.63 886.461 1033.84 886.461Z" fill="#D6C7B2"/>
<path d="M1476.92 1034.15C1517.71 1034.15 1550.77 1001.09 1550.77 960.308C1550.77 1001.09 1583.83 1034.15 1624.61 1034.15C1583.83 1034.15 1550.77 1067.22 1550.77 1108C1550.77 1067.22 1517.71 1034.15 1476.92 1034.15Z" fill="#E5F0F5"/>
<path d="M1476.92 886.351C1517.71 886.351 1550.77 853.289 1550.77 812.505C1550.77 853.289 1583.83 886.351 1624.61 886.351C1583.83 886.351 1550.77 919.414 1550.77 960.198C1550.77 919.414 1517.71 886.351 1476.92 886.351Z" fill="#E5F0F5"/>
<path d="M886.152 1034.15C926.936 1034.15 959.998 1001.09 959.998 960.308C959.998 1001.09 993.06 1034.15 1033.84 1034.15C993.06 1034.15 959.998 1067.22 959.998 1108C959.998 1067.22 926.936 1034.15 886.152 1034.15Z" fill="#E5F0F5"/>
<path d="M295.381 738.659C336.165 738.659 369.227 705.597 369.227 664.812C369.227 705.597 402.288 738.659 443.072 738.659C402.288 738.659 369.227 771.721 369.227 812.506C369.227 771.721 336.165 738.659 295.381 738.659Z" fill="#D6C7B2"/>
<path d="M147.693 886.352C188.477 886.352 221.539 853.29 221.539 812.506C221.539 853.29 254.601 886.352 295.385 886.352C254.601 886.352 221.539 919.415 221.539 960.199C221.539 919.415 188.477 886.352 147.693 886.352Z" fill="#E5F0F5"/>
<path d="M295.381 886.352C336.165 886.352 369.227 853.29 369.227 812.506C369.227 853.29 402.288 886.352 443.072 886.352C402.288 886.352 369.227 919.415 369.227 960.199C369.227 919.415 336.165 886.352 295.381 886.352Z" fill="#E5F0F5"/>
<path d="M1624.62 886.352C1665.4 886.352 1698.46 853.29 1698.46 812.506C1698.46 853.29 1731.52 886.352 1772.31 886.352C1731.52 886.352 1698.46 919.415 1698.46 960.199C1698.46 919.415 1665.4 886.352 1624.62 886.352Z" fill="#E5F0F5"/>
<path d="M147.693 1034.05C188.477 1034.05 221.539 1000.98 221.539 960.199C221.539 1000.98 254.601 1034.05 295.385 1034.05C254.601 1034.05 221.539 1067.11 221.539 1107.89C221.539 1067.11 188.477 1034.05 147.693 1034.05Z" fill="#D6C7B2"/>
<path d="M295.381 1034.05C336.165 1034.05 369.227 1000.98 369.227 960.199C369.227 1000.98 402.288 1034.05 443.072 1034.05C402.288 1034.05 369.227 1067.11 369.227 1107.89C369.227 1067.11 336.165 1034.05 295.381 1034.05Z" fill="#D6C7B2"/>
<path d="M1624.62 1034.05C1665.4 1034.05 1698.46 1000.98 1698.46 960.199C1698.46 1000.98 1731.52 1034.05 1772.31 1034.05C1731.52 1034.05 1698.46 1067.11 1698.46 1107.89C1698.46 1067.11 1665.4 1034.05 1624.62 1034.05Z" fill="#D6C7B2"/>
<path d="M1920 738.659C1879.22 738.659 1846.15 771.721 1846.15 812.506H1920V738.659Z" fill="#D6C7B2"/>
<path d="M1920 295.581C1879.22 295.581 1846.15 328.643 1846.15 369.428H1920V295.581Z" fill="#D6C7B2"/>
<path d="M1772.31 886.353C1813.09 886.353 1846.15 853.29 1846.15 812.506L1772.31 812.506L1772.31 886.353Z" fill="#D6C7B2"/>
<path d="M1772.31 738.659C1813.09 738.659 1846.15 705.597 1846.15 664.813L1772.31 664.813L1772.31 738.659Z" fill="#E5F0F5"/>
<path d="M1920 590.968C1879.22 590.968 1846.15 624.03 1846.15 664.814H1920V590.968Z" fill="#E5F0F5"/>
<path d="M1920 443.273C1879.22 443.273 1846.15 476.336 1846.15 517.12H1920V443.273Z" fill="#D6C7B2"/>
<path d="M1772.76 739.116C1812.93 739.36 1845.45 771.879 1845.7 812.05L1772.76 812.05L1772.76 739.116Z" stroke="#D6C7B2" stroke-width="0.910458"/>
<path d="M1919.55 885.896C1879.37 885.652 1846.85 853.133 1846.61 812.961L1919.55 812.961L1919.55 885.896Z" stroke="#D6C7B2" stroke-width="0.910458"/>
<path d="M1919.55 738.203C1879.37 737.959 1846.85 705.44 1846.61 665.268L1919.55 665.268L1919.55 738.203Z" stroke="#E5F0F5" stroke-width="0.910458"/>
<path d="M1772.31 590.968C1813.09 590.968 1846.15 557.906 1846.15 517.121L1772.31 517.121L1772.31 590.968Z" fill="#D6C7B2"/>
<path d="M1772.76 443.73C1812.93 443.974 1845.45 476.493 1845.7 516.665L1772.76 516.665L1772.76 443.73Z" stroke="#D6C7B2" stroke-width="0.910458"/>
<path d="M1772.76 591.424C1812.93 591.668 1845.45 624.187 1845.7 664.359L1772.76 664.359L1772.76 591.424Z" stroke="#E5F0F5" stroke-width="0.910458"/>
<path d="M1919.55 442.817C1879.37 442.573 1846.85 410.054 1846.61 369.882L1919.55 369.882L1919.55 442.817Z" stroke="#E5F0F5" stroke-width="0.910458"/>
<path d="M1919.55 590.511C1879.37 590.267 1846.85 557.748 1846.61 517.576L1919.55 517.576L1919.55 590.511Z" stroke="#D6C7B2" stroke-width="0.910458"/>
<path d="M1624.62 590.967C1665.4 590.967 1698.46 557.904 1698.46 517.12C1698.46 557.904 1731.52 590.967 1772.31 590.967C1731.52 590.967 1698.46 624.029 1698.46 664.813C1698.46 624.029 1665.4 590.967 1624.62 590.967Z" fill="#E5F0F5"/>
<path d="M1624.62 738.659C1665.4 738.659 1698.46 705.597 1698.46 664.812C1698.46 705.597 1731.52 738.659 1772.31 738.659C1731.52 738.659 1698.46 771.721 1698.46 812.506C1698.46 771.721 1665.4 738.659 1624.62 738.659Z" fill="#D6C7B2"/>
</svg>
