<svg width="172" height="1085" viewBox="0 0 172 1085" fill="none" xmlns="http://www.w3.org/2000/svg">
<path d="M0 106.13C47.0863 106.13 85.2574 58.6137 85.2574 0C85.2574 58.6137 123.428 106.13 170.515 106.13C123.428 106.13 85.2574 153.645 85.2574 212.259C85.2574 153.645 47.0863 106.13 0 106.13Z" fill="#E5F0F5"/>
<path d="M85.7578 167.489L85.7578 1084.22" stroke="#E5F0F5"/>
<path d="M85.7574 407.787C81.4161 357.826 49.3011 318.094 8.86469 313.234C49.3011 308.374 81.4161 268.641 85.7574 218.681C90.0986 268.641 122.214 308.374 162.65 313.234C122.214 318.094 90.0986 357.826 85.7574 407.787Z" fill="#2F3E5B" stroke="#E5F0F5"/>
<path d="M0 517.989C47.0863 517.989 85.2574 470.474 85.2574 411.86C85.2574 470.474 123.428 517.989 170.515 517.989C123.428 517.989 85.2574 565.505 85.2574 624.119C85.2574 565.505 47.0863 517.989 0 517.989Z" fill="#D6C7B2"/>
</svg>
