<svg width="160" height="974" viewBox="0 0 160 974" fill="none" xmlns="http://www.w3.org/2000/svg">
<path d="M162.902 892.891C118.107 892.891 81.793 929.205 81.793 974H162.902V892.891Z" fill="#E5F0F5"/>
<path d="M0.683754 892.891C45.4791 892.891 81.793 856.577 81.793 811.782L0.683747 811.782L0.683754 892.891Z" fill="#D6C7B2"/>
<path d="M162.902 730.672C118.107 730.672 81.793 766.986 81.793 811.782H162.902V730.672Z" fill="#D6C7B2"/>
<path d="M162.902 568.454C118.107 568.454 81.793 604.768 81.793 649.563H162.902V568.454Z" fill="#E5F0F5"/>
<path d="M162.902 406.236C118.107 406.236 81.793 442.549 81.793 487.345H162.902V406.236Z" fill="#D6C7B2"/>
<path d="M162.902 244.017C118.107 244.017 81.793 280.331 81.793 325.126H162.902V244.017Z" fill="#E5F0F5"/>
<path d="M162.902 81.7986C118.107 81.7986 81.793 118.112 81.793 162.908H162.902V81.7986Z" fill="#D6C7B2"/>
<path d="M0.683754 730.672C45.4791 730.672 81.793 694.359 81.793 649.563L0.683747 649.563L0.683754 730.672Z" fill="#E5F0F5"/>
<path d="M0.683754 568.454C45.4791 568.454 81.793 532.14 81.793 487.345L0.683747 487.345L0.683754 568.454Z" fill="#D6C7B2"/>
<path d="M0.683754 406.236C45.4791 406.236 81.793 369.922 81.793 325.126L0.683747 325.126L0.683754 406.236Z" fill="#E5F0F5"/>
<path d="M0.683754 244.017C45.4791 244.017 81.793 207.703 81.793 162.908L0.683747 162.908L0.683754 244.017Z" fill="#D6C7B2"/>
<path d="M0.683754 81.7986C45.4791 81.7986 81.793 45.4848 81.793 0.689369L0.683747 0.689376L0.683754 81.7986Z" fill="#E5F0F5"/>
<path d="M1.18375 893.392C45.3064 893.66 81.0234 929.377 81.2914 973.5L1.18375 973.5L1.18375 893.392Z" stroke="#E5F0F5"/>
<path d="M162.402 892.389C118.28 892.121 82.5625 856.404 82.2945 812.282L162.402 812.282L162.402 892.389Z" stroke="#D6C7B2"/>
<path d="M1.18375 731.174C45.3064 731.442 81.0234 767.159 81.2914 811.282L1.18375 811.282L1.18375 731.174Z" stroke="#D6C7B2"/>
<path d="M1.18375 568.955C45.3064 569.223 81.0234 604.94 81.2914 649.063L1.18375 649.063L1.18375 568.955Z" stroke="#E5F0F5"/>
<path d="M1.18375 406.737C45.3064 407.005 81.0234 442.722 81.2914 486.845L1.18375 486.845L1.18375 406.737Z" stroke="#D6C7B2"/>
<path d="M1.18375 244.519C45.3064 244.787 81.0234 280.504 81.2914 324.626L1.18375 324.626L1.18375 244.519Z" stroke="#E5F0F5"/>
<path d="M1.18375 82.3001C45.3064 82.5681 81.0234 118.285 81.2914 162.408L1.18375 162.408L1.18375 82.3001Z" stroke="#D6C7B2"/>
<path d="M162.402 730.171C118.28 729.903 82.5625 694.186 82.2945 650.063L162.402 650.063L162.402 730.171Z" stroke="#E5F0F5"/>
<path d="M162.402 567.952C118.28 567.684 82.5625 531.967 82.2945 487.845L162.402 487.845L162.402 567.952Z" stroke="#D6C7B2"/>
<path d="M162.402 405.734C118.28 405.466 82.5625 369.749 82.2945 325.626L162.402 325.626L162.402 405.734Z" stroke="#E5F0F5"/>
<path d="M162.402 243.516C118.28 243.248 82.5625 207.53 82.2945 163.408L162.402 163.408L162.402 243.516Z" stroke="#D6C7B2"/>
<path d="M162.402 81.2971C118.28 81.0291 82.5625 45.312 82.2945 1.18937L162.402 1.18937L162.402 81.2971Z" stroke="#E5F0F5"/>
</svg>
