<svg width="275" height="209" viewBox="0 0 275 209" fill="none" xmlns="http://www.w3.org/2000/svg">
<path d="M259.73 31.0482C261.387 34.753 260.215 39.7971 256.058 45.9804C251.936 52.1124 245.052 59.0941 235.895 66.4838C217.592 81.2538 190.389 97.5085 158.626 111.722C126.862 125.935 96.6152 135.386 73.4059 139.192C61.7937 141.095 52.0008 141.576 44.6819 140.563C37.3018 139.542 32.7593 137.055 31.1016 133.351C29.4439 129.646 30.6164 124.602 34.7729 118.419C38.8949 112.287 45.7788 105.305 54.9362 97.9151C73.2392 83.1452 100.442 66.8904 132.206 52.6773C163.969 38.4642 194.216 29.0126 217.425 25.2074C229.037 23.3035 238.83 22.8229 246.149 23.8355C253.529 24.8566 258.072 27.3435 259.73 31.0482Z" stroke="#E5F0F5" stroke-width="2"/>
<path d="M243.862 74.8998C245.52 78.6045 244.348 83.6487 240.191 89.832C236.069 95.964 229.185 102.946 220.028 110.335C201.725 125.105 174.522 141.36 142.758 155.573C110.995 169.786 80.748 179.238 57.5387 183.043C45.9265 184.947 36.1337 185.428 28.8147 184.415C21.4346 183.394 16.8921 180.907 15.2344 177.202C13.5767 173.498 14.7492 168.453 18.9057 162.27C23.0277 156.138 29.9116 149.156 39.069 141.767C57.372 126.997 84.5746 110.742 116.338 96.5289C148.102 82.3158 178.349 72.8642 201.558 69.0589C213.17 67.1551 222.963 66.6745 230.282 67.6871C237.662 68.7082 242.205 71.1951 243.862 74.8998Z" stroke="#E5F0F5" stroke-width="2"/>
</svg>
