<svg width="1838" height="2629" viewBox="0 0 1838 2629" fill="none" xmlns="http://www.w3.org/2000/svg">
<path d="M104.282 64.1793C104.295 86.4944 85.5206 105.387 85.5206 105.387C85.5206 105.387 66.7263 88.0995 66.7139 65.7844C66.7015 43.4694 85.4756 24.5768 85.4756 24.5768C85.4756 24.5768 104.27 41.8642 104.282 64.1793Z" fill="#2F3E5B"/>
<path d="M126.888 86.6975C104.486 86.6851 85.5203 105.387 85.5203 105.387C85.5203 105.387 102.875 124.109 125.276 124.121C147.678 124.133 166.644 105.432 166.644 105.432C166.644 105.432 149.289 86.7099 126.888 86.6975Z" fill="#2F3E5B"/>
<path d="M44.169 124.06C66.5706 124.073 85.5364 105.371 85.5364 105.371C85.5364 105.371 68.182 86.6493 45.7804 86.6369C23.3788 86.6245 4.41306 105.326 4.41306 105.326C4.41306 105.326 21.7674 124.048 44.169 124.06Z" fill="#2F3E5B"/>
<path d="M66.7743 146.579C66.7619 124.264 85.536 105.371 85.536 105.371C85.536 105.371 104.33 122.659 104.343 144.974C104.355 167.289 85.581 186.181 85.581 186.181C85.581 186.181 66.7867 168.894 66.7743 146.579Z" fill="#2F3E5B"/>
<path d="M1836.78 1539.74L1836.28 1539.74L1836.78 1539.74ZM1836.78 2475.07L1837.28 2475.07L1836.78 2475.07ZM1457.1 2624.71C1456.91 2624.91 1456.91 2625.22 1457.1 2625.42L1460.28 2628.6C1460.48 2628.8 1460.8 2628.8 1460.99 2628.6C1461.19 2628.41 1461.19 2628.09 1460.99 2627.89L1458.16 2625.07L1460.99 2622.24C1461.19 2622.04 1461.19 2621.73 1460.99 2621.53C1460.8 2621.34 1460.48 2621.34 1460.28 2621.53L1457.1 2624.71ZM85.7578 1239.74L86.2578 1239.74L85.7578 1239.74ZM235.417 1390.24L1458.57 1390.24L1458.57 1389.24L235.417 1389.24L235.417 1390.24ZM1458.57 1390.24L1686.78 1390.24L1686.78 1389.24L1458.57 1389.24L1458.57 1390.24ZM1836.28 1539.74L1836.28 2475.07L1837.28 2475.07L1837.28 1539.74L1836.28 1539.74ZM1686.78 2624.57L1457.46 2624.57L1457.46 2625.57L1686.78 2625.57L1686.78 2624.57ZM86.2578 1239.74L86.2578 0.219238L85.2578 0.219238L85.2578 1239.74L86.2578 1239.74ZM1836.28 2475.07C1836.28 2557.63 1769.35 2624.57 1686.78 2624.57L1686.78 2625.57C1769.9 2625.57 1837.28 2558.18 1837.28 2475.07L1836.28 2475.07ZM1686.78 1390.24C1769.35 1390.24 1836.28 1457.17 1836.28 1539.74L1837.28 1539.74C1837.28 1456.62 1769.9 1389.24 1686.78 1389.24L1686.78 1390.24ZM235.417 1389.24C152.852 1389.24 86.2578 1322.3 86.2578 1239.74L85.2578 1239.74C85.2578 1322.85 152.297 1390.24 235.417 1390.24L235.417 1389.24Z" fill="#2F3E5B"/>
</svg>
