<svg width="126" height="1762" viewBox="0 0 126 1762" fill="none" xmlns="http://www.w3.org/2000/svg">
<path d="M57.4902 811.194L57.4902 1761.63" stroke="#2F3E5B"/>
<path d="M56.8652 0.214111V853.422" stroke="#2F3E5B"/>
<path d="M69.7686 50.2705C69.777 65.4921 56.9708 78.3791 56.9708 78.3791C56.9708 78.3791 44.1508 66.587 44.1423 51.3654C44.1338 36.1438 56.9401 23.2567 56.9401 23.2567C56.9401 23.2567 69.7601 35.0488 69.7686 50.2705Z" fill="#2F3E5B"/>
<path d="M85.189 65.6307C69.9083 65.6223 56.9714 78.3791 56.9714 78.3791C56.9714 78.3791 68.8092 91.1496 84.0898 91.1581C99.3704 91.1665 112.307 78.4097 112.307 78.4097C112.307 78.4097 100.47 65.6392 85.189 65.6307Z" fill="#2F3E5B"/>
<path d="M28.7642 91.1168C44.0448 91.1253 56.9818 78.3684 56.9818 78.3684C56.9818 78.3684 45.1439 65.5979 29.8633 65.5895C14.5827 65.5811 1.64573 78.3379 1.64573 78.3379C1.64573 78.3379 13.4835 91.1084 28.7642 91.1168Z" fill="#2F3E5B"/>
<path d="M44.1846 106.477C44.1761 91.2555 56.9824 78.3684 56.9824 78.3684C56.9824 78.3684 69.8024 90.1605 69.8108 105.382C69.8193 120.604 57.013 133.491 57.013 133.491C57.013 133.491 44.193 121.699 44.1846 106.477Z" fill="#2F3E5B"/>
</svg>
