<svg width="186" height="200" viewBox="0 0 186 200" fill="none" xmlns="http://www.w3.org/2000/svg">
<path d="M104.282 59.1793C104.295 81.4944 85.5206 100.387 85.5206 100.387C85.5206 100.387 66.7263 83.0995 66.7139 60.7845C66.7015 38.4694 85.4756 19.5768 85.4756 19.5768C85.4756 19.5768 104.27 36.8642 104.282 59.1793Z" fill="#2F3E5B"/>
<path d="M126.888 81.6975C104.486 81.6851 85.5203 100.387 85.5203 100.387C85.5203 100.387 102.875 119.109 125.276 119.121C147.678 119.133 166.644 100.432 166.644 100.432C166.644 100.432 149.289 81.7099 126.888 81.6975Z" fill="#2F3E5B"/>
<path d="M44.169 119.06C66.5706 119.073 85.5364 100.371 85.5364 100.371C85.5364 100.371 68.182 81.6493 45.7804 81.6369C23.3788 81.6245 4.41306 100.326 4.41306 100.326C4.41306 100.326 21.7674 119.048 44.169 119.06Z" fill="#2F3E5B"/>
<path d="M66.7743 141.579C66.7619 119.264 85.536 100.371 85.536 100.371C85.536 100.371 104.33 117.659 104.343 139.974C104.355 162.289 85.581 181.181 85.581 181.181C85.581 181.181 66.7867 163.894 66.7743 141.579Z" fill="#2F3E5B"/>
</svg>
