<svg width="133" height="23" viewBox="0 0 133 23" fill="none" xmlns="http://www.w3.org/2000/svg">
<path d="M5.16539 11.4121L14.6003 20.3516L12.3359 22.4996L0.669922 11.4331L8.77286 3.74658L11.0261 5.86301L5.16539 11.4121Z" fill="#E5F0F5"/>
<path d="M12.3368 0.376953L10.0725 2.52497L13.6244 5.86282L7.76367 11.4119L15.8888 19.1195L23.9917 11.4329L12.3368 0.376953ZM15.8777 14.8445L12.2702 11.4224L15.8777 7.98978L19.4963 11.4224L15.8777 14.8445Z" fill="#E5F0F5"/>
<path d="M33.182 5.26221V14.7598H31.2617V5.26221H33.182Z" fill="#E5F0F5"/>
<path d="M35.7006 4.88281L37.077 6.18847L35.7006 7.50466L34.3242 6.18847L35.7006 4.88281ZM36.6663 7.98902V14.77H34.7571V7.98902H36.6663Z" fill="#E5F0F5"/>
<path d="M42.5736 9.44233H38.1004L38.0893 7.98926H45.0045V9.44233L40.2094 13.2751H45.0933V14.7597H37.8451V13.2435H37.834L42.5736 9.44233Z" fill="#E5F0F5"/>
<path d="M51.1307 10.8216H51.608V10.5899C51.608 9.68437 50.831 9.17896 49.4546 9.17896C48.5778 9.17896 47.8008 9.34743 46.6131 9.76861V8.44189C47.5566 8.02071 48.4889 7.78906 49.6433 7.78906C52.1075 7.78906 53.4839 8.84201 53.4839 10.7268V14.7701H51.6191V13.5592C50.9309 14.4016 49.8875 14.9912 48.489 14.9912C46.935 14.9912 46.0137 14.3068 46.0137 13.1486C46.0248 11.5797 47.6898 10.8216 51.1307 10.8216ZM49.0994 13.6645C49.9208 13.6645 50.7755 13.3486 51.608 12.7485V11.9166H51.1862C48.6998 11.9166 47.8452 12.2536 47.8452 12.8959C47.8452 13.3697 48.3336 13.6645 49.0994 13.6645Z" fill="#E5F0F5"/>
<path d="M54.9043 7.98881H56.7691V9.57876C57.3463 8.43105 58.4785 7.89404 59.644 7.89404C59.8216 7.89404 59.9992 7.90457 60.1768 7.92563V9.71565C59.7439 9.61035 59.3332 9.5577 58.9558 9.5577C58.1011 9.5577 57.3574 9.82094 56.8246 10.3369V14.7698H54.9043V7.98881Z" fill="#E5F0F5"/>
<path d="M67.3684 9.24236V5.26221H69.2776V14.7598H67.3684V13.412C66.6914 14.465 65.6702 15.0125 64.4492 15.0125C62.4068 15.0125 60.875 13.5068 60.875 11.3693C60.875 9.20024 62.3957 7.77876 64.4492 7.77876C65.6924 7.77876 66.7802 8.31576 67.3684 9.24236ZM65.1374 13.5805C66.5138 13.5805 67.4351 12.7171 67.4351 11.443V11.3272C67.4351 10.0637 66.5027 9.23183 65.1374 9.23183C63.7499 9.23183 62.8397 10.1058 62.8397 11.4114C62.8397 12.7066 63.7388 13.5805 65.1374 13.5805Z" fill="#E5F0F5"/>
<path d="M72.876 13.5488V17.3604H70.9668V7.97866H72.876V9.36855C73.5531 8.3156 74.5743 7.76807 75.7953 7.76807C77.8376 7.76807 79.3694 9.27379 79.3694 11.4113C79.3694 13.5804 77.8487 15.0018 75.7953 15.0018C74.541 15.0229 73.4532 14.4859 72.876 13.5488ZM75.1071 13.5804C76.4946 13.5804 77.4047 12.7064 77.4047 11.4007C77.4047 10.0951 76.4946 9.22114 75.1071 9.22114C73.7307 9.22114 72.8094 10.0846 72.8094 11.3586V11.485C72.8094 12.738 73.7418 13.5804 75.1071 13.5804Z" fill="#E5F0F5"/>
<path d="M80.5898 7.98881H82.4546V9.57876C83.0318 8.43105 84.164 7.89404 85.3295 7.89404C85.5071 7.89404 85.6847 7.90457 85.8623 7.92563V9.71565C85.4294 9.61035 85.0187 9.5577 84.6413 9.5577C83.7866 9.5577 83.0429 9.82094 82.5101 10.3369V14.7698H80.6009L80.5898 7.98881Z" fill="#E5F0F5"/>
<path d="M86.4395 11.411C86.4395 9.22086 88.1266 7.77832 90.7129 7.77832C93.3103 7.77832 94.9864 9.22086 94.9864 11.411C94.9864 13.5695 93.3103 15.0121 90.7129 15.0121C88.1155 15.0121 86.4395 13.5695 86.4395 11.411ZM90.7129 13.5485C92.0782 13.5485 93.0217 12.7167 93.0217 11.411C93.0217 10.0843 92.0782 9.23139 90.7129 9.23139C89.3476 9.23139 88.4041 10.0738 88.4041 11.411C88.4041 12.7167 89.3476 13.5485 90.7129 13.5485Z" fill="#E5F0F5"/>
<path d="M95.2417 17.4866C94.609 17.4866 93.9541 17.4024 93.4213 17.255L93.166 15.8124C93.6211 15.9177 94.1317 15.9704 94.5868 15.9704C96.0409 15.9704 96.8734 15.4228 96.8734 14.1382V7.97849H98.7826V14.0856C98.7715 16.2757 97.4506 17.4866 95.2417 17.4866ZM97.8169 4.88281L99.1933 6.18847L97.8169 7.49413L96.4294 6.18847L97.8169 4.88281Z" fill="#E5F0F5"/>
<path d="M104.176 7.77832C106.463 7.77832 107.973 9.01027 107.973 10.9266V11.8006H102.012C102.267 12.9167 103.322 13.5695 105.031 13.5695C105.986 13.5695 106.918 13.3905 107.95 13.0852L107.762 14.4856C106.963 14.8015 105.952 15.0226 104.776 15.0226C101.956 15.0226 100.125 13.5906 100.125 11.3899C100.125 9.18927 101.712 7.77832 104.176 7.77832ZM106.208 10.7055C106.152 9.65257 105.453 9.13663 104.165 9.13663C102.844 9.13663 102.079 9.68416 102.001 10.7055H106.208Z" fill="#E5F0F5"/>
<path d="M115.976 8.37855L116.043 9.8948C115.044 9.4315 114.245 9.24197 113.423 9.24197C111.803 9.24197 110.837 10.0422 110.837 11.3689C110.837 12.6746 111.836 13.5275 113.579 13.5275C114.467 13.5275 115.51 13.2958 116.176 12.8957L116.043 14.4014C115.255 14.8226 114.334 15.0332 113.19 15.0332C110.526 15.0332 108.861 13.6433 108.861 11.4005C108.861 9.17879 110.504 7.79943 113.168 7.79943C114.167 7.77837 115.033 7.9679 115.976 8.37855Z" fill="#E5F0F5"/>
<path d="M118.24 9.37868H116.697V7.98879H118.273V6.92531L120.149 5.69336V7.98879H123.557V9.37868H120.149V12.0637C120.149 13.0219 120.815 13.5168 122.025 13.5168C122.458 13.5168 123.113 13.4536 123.857 13.1904L123.601 14.5908C122.902 14.8646 122.17 15.012 121.437 15.012C119.494 15.012 118.24 13.9906 118.24 12.6639V9.37868Z" fill="#E5F0F5"/>
<path d="M128.642 7.77832C129.652 7.77832 130.662 7.9152 131.606 8.28373L131.683 9.75786C130.74 9.35774 129.785 9.13663 128.586 9.13663C127.254 9.13663 126.633 9.3788 126.633 9.79998C126.633 11.0319 132.172 9.93687 132.172 12.8746C132.172 14.3066 130.873 15.0016 128.564 15.0016C127.277 15.0016 126.155 14.8331 125.079 14.3593L124.968 12.8535C126.255 13.4011 127.265 13.6117 128.375 13.6117C129.685 13.6117 130.373 13.3379 130.373 12.8535C130.373 11.4847 124.879 12.5271 124.879 9.76839C124.868 8.4838 126.189 7.77832 128.642 7.77832Z" fill="#E5F0F5"/>
</svg>
