<svg width="159" height="146" viewBox="0 0 159 146" fill="none" xmlns="http://www.w3.org/2000/svg">
<path d="M158.974 73.2375C158.974 113.171 126.667 145.543 86.8141 145.543C46.9613 145.543 14.6543 113.171 14.6543 73.2375C14.6543 33.3043 46.9613 0.932129 86.8141 0.932129C126.667 0.932129 158.974 33.3043 158.974 73.2375Z" fill="#2F3E5B"/>
<path d="M144.974 73.2375C144.974 113.171 112.667 145.543 72.8141 145.543C32.9613 145.543 0.654297 113.171 0.654297 73.2375C0.654297 33.3043 32.9613 0.932129 72.8141 0.932129C112.667 0.932129 144.974 33.3043 144.974 73.2375Z" fill="#D6C7B2"/>
<path d="M55.0231 94.1309C55.0231 90.6001 55.5594 87.5832 56.6321 85.0803C57.7047 82.5327 59.2467 80.3651 61.2579 78.5773C63.3139 76.7448 65.7274 75.1582 68.4984 73.8174L72.655 71.7391C73.7276 71.2028 74.7779 70.6217 75.8059 69.996C76.8339 69.3256 77.7725 68.5881 78.6216 67.7837C79.4708 66.9792 80.1413 66.0853 80.6329 65.102C81.1245 64.074 81.3703 62.912 81.3703 61.6158L90.0187 62.6885C90.0187 64.9679 89.5941 66.9792 88.7449 68.7222C87.9404 70.4206 86.8007 71.9179 85.3258 73.214C83.8956 74.4654 82.2642 75.5381 80.4318 76.432C78.644 77.3259 76.7668 78.0857 74.8003 78.7114L70.7778 80.2533C68.7219 81.0131 66.9565 81.7953 65.4815 82.5998C64.0513 83.4043 62.8893 84.2982 61.9954 85.2814C61.1015 86.22 60.4311 87.3597 59.9842 88.7006L55.0231 95.6729V94.1309ZM55.0231 95.6729V94.1309L59.9842 88.7006H89.9516V95.6729H55.0231ZM80.0966 88.7006C82.1078 88.7006 83.4486 88.3207 84.119 87.5608C84.7895 86.7564 85.1247 85.3038 85.1247 83.2032V81.0578H89.9516V88.7006H80.0966ZM61.5931 67.0462C60.6099 67.0462 59.6713 66.8227 58.7774 66.3758C57.9282 65.9288 57.2355 65.2584 56.6991 64.3645C56.2075 63.4707 55.9617 62.398 55.9617 61.1466C55.9617 58.6884 56.7215 56.5877 58.2411 54.8447C59.7607 53.0569 61.8166 51.6937 64.4089 50.7552C67.0011 49.8166 69.9286 49.3473 73.1913 49.3473C76.3199 49.3473 79.158 49.8166 81.7055 50.7552C84.2531 51.6937 86.2867 53.1463 87.8063 55.1128C89.3259 57.0794 90.0634 59.6046 90.0187 62.6885L81.3703 61.6158C81.3703 59.9175 80.9457 58.5096 80.0966 57.3922C79.2474 56.2302 78.0853 55.381 76.6104 54.8447C75.1802 54.2636 73.5489 53.9731 71.7164 53.9731C69.7945 53.9731 68.0515 54.219 66.4872 54.7106C64.9229 55.2022 63.6491 55.9173 62.6658 56.8559C61.6825 57.7945 61.0568 58.9565 60.7887 60.3421L60.3864 58.7331C62.2189 58.6884 63.6491 59.0459 64.677 59.8057C65.7497 60.5208 66.286 61.5488 66.286 62.8896C66.286 64.0964 65.8614 65.102 65.0123 65.9065C64.2078 66.6663 63.0681 67.0462 61.5931 67.0462Z" fill="#2F3E5B"/>
</svg>
