<svg width="97" height="88" viewBox="0 0 97 88" fill="none" xmlns="http://www.w3.org/2000/svg">
<rect width="61.1783" height="61.1783" rx="1.43467" transform="matrix(0.706394 -0.707819 0.706394 0.707819 10.0273 43.7686)" fill="#D6C7B2"/>
<rect width="61.1783" height="61.1783" rx="1.43467" transform="matrix(0.706394 -0.707819 0.706394 0.707819 0.392578 43.7686)" fill="#2F3E5B"/>
<path d="M40.9401 57.3541C38.7001 57.3541 36.7401 56.9674 35.0601 56.1941C33.4067 55.3941 32.1267 54.2474 31.2201 52.7541C30.3401 51.2341 29.9534 49.3941 30.0601 47.2341H33.0601C33.1401 48.5141 33.4734 49.6208 34.0601 50.5541C34.6467 51.4608 35.4468 52.1541 36.4601 52.6341C37.5001 53.1141 38.6734 53.3541 39.9801 53.3541C41.9801 53.3541 43.4868 52.8874 44.5001 51.9541C45.5134 50.9941 46.0201 49.8074 46.0201 48.3941C46.0201 47.2741 45.7001 46.3408 45.0601 45.5941C44.4468 44.8474 43.5134 44.2874 42.2601 43.9141C41.0334 43.5408 39.5267 43.3674 37.7401 43.3941V41.2341C40.8601 41.0208 43.4201 41.1941 45.4201 41.7541C47.4201 42.3141 48.8868 43.2074 49.8201 44.4341C50.7801 45.6341 51.2601 47.0874 51.2601 48.7941C51.2601 50.3941 50.8601 51.8341 50.0601 53.1141C49.2868 54.3941 48.1401 55.4208 46.6201 56.1941C45.1001 56.9674 43.2068 57.3541 40.9401 57.3541ZM37.7401 40.7541C40.2734 40.7541 42.1934 40.3808 43.5001 39.6341C44.8068 38.8874 45.4601 37.7408 45.4601 36.1941C45.4601 34.9141 44.9401 33.9274 43.9001 33.2341C42.8601 32.5141 41.4868 32.1541 39.7801 32.1541C38.7401 32.1541 37.8067 32.2741 36.9801 32.5141C36.1801 32.7274 35.5134 33.0608 34.9801 33.5141C34.4734 33.9408 34.1267 34.4741 33.9401 35.1141L33.6201 34.2741C34.5267 34.2741 35.2867 34.4474 35.9001 34.7941C36.5401 35.1141 36.8601 35.6608 36.8601 36.4341C36.8601 37.1541 36.6201 37.7274 36.1401 38.1541C35.6601 38.5541 35.0067 38.7541 34.1801 38.7541C33.2467 38.7541 32.4601 38.4741 31.8201 37.9141C31.1801 37.3541 30.8601 36.5274 30.8601 35.4341C30.8601 34.1274 31.3001 33.0208 32.1801 32.1141C33.0867 31.1808 34.2867 30.4741 35.7801 29.9941C37.2734 29.5141 38.9001 29.2741 40.6601 29.2741C42.5534 29.2741 44.2334 29.5541 45.7001 30.1141C47.1934 30.6474 48.3534 31.4074 49.1801 32.3941C50.0334 33.3808 50.4601 34.5408 50.4601 35.8741C50.4601 38.0874 49.3934 39.7274 47.2601 40.7941C45.1534 41.8341 41.9801 42.3008 37.7401 42.1941V40.7541Z" fill="#E5F0F5"/>
</svg>
