<svg width="161" height="147" viewBox="0 0 161 147" fill="none" xmlns="http://www.w3.org/2000/svg">
<rect width="102.636" height="102.636" rx="2" transform="matrix(0.706394 -0.707819 0.706394 0.707819 15.9941 73.2368)" fill="#D6C7B2"/>
<rect width="102.636" height="102.636" rx="2" transform="matrix(0.706394 -0.707819 0.706394 0.707819 -0.00390625 73.5796)" fill="#2F3E5B"/>
<path d="M72.9133 96.6195C69.159 96.6195 65.8963 95.9714 63.1252 94.6753C60.3989 93.3792 58.2983 91.4796 56.8233 88.9768C55.3931 86.4292 54.7451 83.323 54.8791 79.658H59.6391C59.7732 81.8927 60.3318 83.7922 61.3151 85.3565C62.2984 86.8761 63.6392 88.0382 65.3376 88.8427C67.036 89.6472 68.9802 90.0494 71.1702 90.0494C74.5223 90.0494 77.0475 89.2673 78.7459 87.703C80.4442 86.094 81.2934 84.0828 81.2934 81.6693C81.2934 79.7921 80.7571 78.2278 79.6844 76.9764C78.6565 75.6802 77.1145 74.7193 75.0586 74.0936C73.0474 73.4679 70.5221 73.1774 67.4829 73.2221V69.6689C72.7121 69.3113 76.9804 69.6242 80.2878 70.6074C83.5952 71.546 86.031 73.0433 87.5953 75.0992C89.2043 77.1551 90.0088 79.6133 90.0088 82.4738C90.0088 85.1107 89.3607 87.5019 88.0646 89.6472C86.7685 91.7925 84.8466 93.4909 82.2991 94.7423C79.7962 95.9938 76.6676 96.6195 72.9133 96.6195ZM67.4829 68.9984C71.7289 68.9984 74.9469 68.3504 77.1369 67.0543C79.3269 65.7581 80.4219 63.7916 80.4219 61.1546C80.4219 58.9646 79.5504 57.2886 77.8073 56.1265C76.0642 54.9198 73.8072 54.3164 71.0361 54.3164C69.293 54.3164 67.7064 54.5175 66.2762 54.9198C64.8907 55.322 63.751 55.903 62.8571 56.6628C62.0079 57.4226 61.4269 58.3389 61.114 59.4115L60.5777 58.0707C62.1867 58.026 63.5051 58.2942 64.5331 58.8752C65.6058 59.4562 66.1421 60.3725 66.1421 61.6239C66.1421 62.8306 65.7398 63.7916 64.9353 64.5067C64.1309 65.1771 63.0135 65.5123 61.5833 65.5123C60.1084 65.5123 58.8122 65.043 57.6949 64.1044C56.6222 63.1659 56.0859 61.8027 56.0859 60.0149C56.0859 57.8249 56.8233 55.9701 58.2983 54.4505C59.8179 52.8862 61.8068 51.7018 64.2649 50.8973C66.7678 50.0928 69.5165 49.6905 72.511 49.6905C75.5949 49.6905 78.366 50.1375 80.8241 51.0314C83.2823 51.9253 85.2042 53.199 86.5897 54.8527C88.0199 56.4617 88.735 58.3836 88.735 60.6183C88.735 64.2832 86.9473 67.0096 83.3717 68.7973C79.8409 70.5404 74.5446 71.3226 67.4829 71.1438V68.9984Z" fill="#E5F0F5"/>
</svg>
