<svg width="81" height="73" viewBox="0 0 81 73" fill="none" xmlns="http://www.w3.org/2000/svg">
<path d="M80.7147 36.5294C80.7147 56.6619 64.4269 72.9826 44.3349 72.9826C24.2429 72.9826 7.95508 56.6619 7.95508 36.5294C7.95508 16.3968 24.2429 0.0761719 44.3349 0.0761719C64.4269 0.0761719 80.7147 16.3968 80.7147 36.5294Z" fill="#2F3E5B"/>
<path d="M73.6561 36.5294C73.6561 56.6619 57.3683 72.9826 37.2763 72.9826C17.1843 72.9826 0.896484 56.6619 0.896484 36.5294C0.896484 16.3968 17.1843 0.0761719 37.2763 0.0761719C57.3683 0.0761719 73.6561 16.3968 73.6561 36.5294Z" fill="#D6C7B2"/>
<path d="M26.4872 49.6957C26.4872 47.5891 26.8072 45.7757 27.4472 44.2557C28.1138 42.7357 29.0605 41.4424 30.2872 40.3757C31.5138 39.2824 32.9672 38.3357 34.6472 37.5357L37.1272 36.3357C37.7938 36.0157 38.4338 35.6691 39.0472 35.2957C39.6872 34.8957 40.2605 34.4557 40.7672 33.9757C41.3005 33.4957 41.7138 32.9624 42.0072 32.3757C42.3005 31.7624 42.4472 31.0691 42.4472 30.2957L47.6872 30.9757C47.6872 32.3357 47.4338 33.5357 46.9272 34.5757C46.4205 35.5891 45.7272 36.4824 44.8472 37.2557C43.9672 38.0024 42.9672 38.6424 41.8472 39.1757C40.7538 39.6824 39.6205 40.1357 38.4472 40.5357L36.0072 41.4157C34.8072 41.8424 33.7805 42.2957 32.9272 42.7757C32.0738 43.2557 31.3805 43.7891 30.8472 44.3757C30.3405 44.9357 29.9538 45.6024 29.6872 46.3757L26.4872 50.6157V49.6957ZM26.4872 50.6157V49.6957L29.6872 46.3757H47.6472V50.6157H26.4872ZM41.6472 46.3757C42.8205 46.3757 43.6072 46.1491 44.0072 45.6957C44.4072 45.2157 44.6072 44.3491 44.6072 43.0957V41.9357H47.6472V46.3757H41.6472ZM30.4472 33.4157C29.8338 33.4157 29.2605 33.2824 28.7272 33.0157C28.2205 32.7224 27.8072 32.3091 27.4872 31.7757C27.1938 31.2424 27.0472 30.6024 27.0472 29.8557C27.0472 28.4157 27.5005 27.1891 28.4072 26.1757C29.3405 25.1357 30.5938 24.3357 32.1672 23.7757C33.7405 23.2157 35.5005 22.9357 37.4472 22.9357C39.3672 22.9357 41.0872 23.2157 42.6072 23.7757C44.1538 24.3357 45.3805 25.2157 46.2872 26.4157C47.2205 27.5891 47.6872 29.1091 47.6872 30.9757L42.4472 30.2957C42.4472 29.3091 42.1938 28.4824 41.6872 27.8157C41.1805 27.1491 40.4872 26.6557 39.6072 26.3357C38.7272 25.9891 37.7138 25.8157 36.5672 25.8157C35.4472 25.8157 34.4072 25.9624 33.4472 26.2557C32.5138 26.5224 31.7405 26.9224 31.1272 27.4557C30.5138 27.9891 30.1405 28.6557 30.0072 29.4557L29.7672 28.4157C30.8338 28.3891 31.6872 28.6024 32.3272 29.0557C32.9672 29.4824 33.2872 30.0957 33.2872 30.8957C33.2872 31.6157 33.0338 32.2157 32.5272 32.6957C32.0472 33.1757 31.3538 33.4157 30.4472 33.4157Z" fill="#2F3E5B"/>
</svg>
