<svg width="27" height="18" viewBox="0 0 27 18" fill="none" xmlns="http://www.w3.org/2000/svg">
<path d="M6.25285 7.98151L5.52145 7.99848C-2.48992 8.13407 0.180536 19.8629 8.75321 16.7612C15.0807 14.4731 13.907 3.94766 7.13733 2.21884C4.14369 1.45613 0.80988 1.99851 3.29323 2.84597C5.41939 3.55783 7.13733 5.60861 7.01826 7.28658C6.98424 7.65946 6.66107 7.98151 6.25285 7.98151Z" fill="#E5F0F5"/>
<path d="M21.9298 17.1852C29.635 14.2361 26.5053 1.35468 17.9496 0.795354C15.7214 0.642812 15.1431 1.16824 16.827 1.79536C18.4599 2.40553 20.518 5.28688 20.7391 7.23604C20.7902 7.62587 20.484 7.94794 20.0928 7.94794C17.8476 7.94794 16.9121 7.94787 15.6023 9.74448C12.3876 14.1852 16.6569 19.2022 21.9298 17.1852Z" fill="#E5F0F5"/>
</svg>
