<svg width="53" height="41" viewBox="0 0 53 41" fill="none" xmlns="http://www.w3.org/2000/svg">
<path d="M11.5169 17.8975L10.0054 17.9373C-6.55127 18.256 -1.03237 45.8171 16.6843 38.5286C29.7609 33.1518 27.3354 8.41848 13.3449 4.35601C7.15808 2.56374 0.268256 3.83824 5.40047 5.82965C9.79449 7.50244 13.3449 12.3215 13.0988 16.2645C13.0285 17.1407 12.3606 17.8975 11.5169 17.8975Z" fill="#E5F0F5"/>
<path d="M43.9145 39.5242C59.8384 32.5941 53.3704 2.32466 35.6889 1.01033C31.084 0.651876 29.8888 1.88655 33.3688 3.36019C36.7434 4.794 40.9969 11.5648 41.4538 16.145C41.5593 17.0611 40.9266 17.8179 40.1181 17.8179C35.478 17.8179 33.5446 17.8177 30.8379 22.0395C24.1941 32.4745 33.0173 44.2638 43.9145 39.5242Z" fill="#E5F0F5"/>
</svg>
